Coordinates
version=1
nRows=8
nColumns=27
inDegrees=yes

Units are S.I. units (second, meters, Newtons, ...)
If the header above contains a line with 'inDegrees', this indicates whether rotational values are in degrees (yes) or radians (no).

endheader
time	pelvis_rotation	pelvis_tilt	pelvis_list	pelvis_tx	pelvis_ty	pelvis_tz	hip_flexion_r	hip_adduction_r	hip_rotation_r	knee_angle_r	knee_rotation_r	knee_adduction_r	knee_angle_r_beta	ankle_angle_r	subtalar_angle_r	mtp_angle_r	hip_flexion_l	hip_adduction_l	hip_rotation_l	knee_angle_l	knee_rotation_l	knee_adduction_l	knee_angle_l_beta	ankle_angle_l	subtalar_angle_l	mtp_angle_l
      4.26000000	     12.70545724	    -45.76045900	      7.33974662	     -0.09203348	      0.54792438	     -1.17624334	    131.03218358	    -44.46296413	     15.36497264	     93.65332982	      0.00000000	      0.00000000	      1.63455896	      8.01493686	      0.00000000	      0.00000000	    125.00264788	    -24.91741689	      6.98518242	     85.94298902	      0.00000000	      0.00000000	      1.49998813	     -1.04678055	      0.00000000	      0.00000000
      4.26500000	     12.79257192	    -45.79353489	      7.42468683	     -0.09261010	      0.54916079	     -1.17652088	    130.92981982	    -44.50239075	     15.27154953	     93.41514377	      0.00000000	      0.00000000	      1.63040183	      7.93029808	      0.00000000	      0.00000000	    124.83383023	    -24.76782484	      6.87187004	     85.72555639	      0.00000000	      0.00000000	      1.49619321	     -1.13505141	      0.00000000	      0.00000000
      4.27000000	     12.81658445	    -45.85172030	      7.47023894	     -0.09320047	      0.55039513	     -1.17677378	    130.81478796	    -44.48421372	     15.14532786	     93.17833158	      0.00000000	      0.00000000	      1.62626868	      7.82977639	      0.00000000	      0.00000000	    124.70010928	    -24.67427440	      6.77319543	     85.51304756	      0.00000000	      0.00000000	      1.49248423	     -1.17204430	      0.00000000	      0.00000000
      4.27500000	     12.81888590	    -45.89505720	      7.50363846	     -0.09378195	      0.55160808	     -1.17700749	    130.67551604	    -44.45092533	     15.01014188	     92.94301967	      0.00000000	      0.00000000	      1.62216171	      7.74948979	      0.00000000	      0.00000000	    124.55581899	    -24.59829210	      6.68136178	     85.30362566	      0.00000000	      0.00000000	      1.48882913	     -1.21456073	      0.00000000	      0.00000000
      4.28000000	     12.84787925	    -45.94803296	      7.53963445	     -0.09435691	      0.55283056	     -1.17724195	    130.54682095	    -44.44312865	     14.87465117	     92.70633715	      0.00000000	      0.00000000	      1.61803082	      7.64729143	      0.00000000	      0.00000000	    124.42241741	    -24.49705278	      6.59125005	     85.08610561	      0.00000000	      0.00000000	      1.48503269	     -1.26351224	      0.00000000	      0.00000000
      4.28500000	     12.88631335	    -46.01171925	      7.53874798	     -0.09492164	      0.55401763	     -1.17748748	    130.40310801	    -44.47507341	     14.69644850	     92.47611872	      0.00000000	      0.00000000	      1.61401275	      7.53416495	      0.00000000	      0.00000000	    124.33023097	    -24.35967905	      6.54652013	     84.88085103	      0.00000000	      0.00000000	      1.48145032	     -1.28758792	      0.00000000	      0.00000000
      4.29000000	     12.91132323	    -46.05224803	      7.60870093	     -0.09547853	      0.55518525	     -1.17766432	    130.29025193	    -44.42856728	     14.60378973	     92.25104162	      0.00000000	      0.00000000	      1.61008441	      7.48177185	      0.00000000	      0.00000000	    124.17590773	    -24.29965851	      6.42560523	     84.66887394	      0.00000000	      0.00000000	      1.47775062	     -1.36664236	      0.00000000	      0.00000000
      4.29500000	     12.89937811	    -46.12672802	      7.64304612	     -0.09606713	      0.55631745	     -1.17783192	    130.19632016	    -44.35415324	     14.49350108	     92.03142343	      0.00000000	      0.00000000	      1.60625135	      7.38813043	      0.00000000	      0.00000000	    124.07481132	    -24.25237624	      6.33530406	     84.46931337	      0.00000000	      0.00000000	      1.47426764	     -1.39352065	      0.00000000	      0.00000000
